<svg xmlns="http://www.w3.org/2000/svg" xmlns:xlink="http://www.w3.org/1999/xlink" width="500" zoomAndPan="magnify" viewBox="0 0 375 374.999991" height="500" preserveAspectRatio="xMidYMid meet" version="1.0"><defs><clipPath id="id1"><path d="M 23.1875 54 L 351.6875 54 L 351.6875 358.238281 L 23.1875 358.238281 Z M 23.1875 54 " clip-rule="nonzero"/></clipPath><clipPath id="id2"><path d="M 73 16.988281 L 100 16.988281 L 100 81 L 73 81 Z M 73 16.988281 " clip-rule="nonzero"/></clipPath><clipPath id="id3"><path d="M 275 16.988281 L 302 16.988281 L 302 81 L 275 81 Z M 275 16.988281 " clip-rule="nonzero"/></clipPath><clipPath id="id4"><path d="M 23.1875 111 L 351.6875 111 L 351.6875 137 L 23.1875 137 Z M 23.1875 111 " clip-rule="nonzero"/></clipPath></defs><g clip-path="url(#id1)"><path fill="#000000" d="M 338.945312 358.238281 L 35.929688 358.238281 C 35.101562 358.238281 34.277344 358.15625 33.464844 357.992188 C 32.652344 357.832031 31.863281 357.59375 31.097656 357.273438 C 30.332031 356.957031 29.605469 356.566406 28.914062 356.105469 C 28.226562 355.644531 27.585938 355.121094 27 354.535156 C 26.414062 353.949219 25.890625 353.308594 25.429688 352.621094 C 24.96875 351.929688 24.582031 351.203125 24.265625 350.433594 C 23.945312 349.667969 23.707031 348.878906 23.546875 348.0625 C 23.382812 347.25 23.304688 346.429688 23.304688 345.597656 L 23.304688 67.542969 C 23.304688 66.710938 23.382812 65.890625 23.546875 65.078125 C 23.707031 64.261719 23.945312 63.472656 24.265625 62.707031 C 24.582031 61.9375 24.96875 61.210938 25.429688 60.519531 C 25.890625 59.832031 26.414062 59.191406 27 58.605469 C 27.585938 58.019531 28.226562 57.496094 28.914062 57.035156 C 29.605469 56.574219 30.332031 56.183594 31.097656 55.867188 C 31.863281 55.546875 32.652344 55.308594 33.464844 55.148438 C 34.277344 54.984375 35.101562 54.902344 35.929688 54.902344 L 338.945312 54.902344 C 339.773438 54.902344 340.597656 54.984375 341.410156 55.148438 C 342.222656 55.308594 343.011719 55.546875 343.777344 55.867188 C 344.542969 56.183594 345.269531 56.574219 345.960938 57.035156 C 346.648438 57.496094 347.289062 58.019531 347.875 58.605469 C 348.460938 59.191406 348.984375 59.832031 349.445312 60.519531 C 349.902344 61.210938 350.292969 61.9375 350.609375 62.707031 C 350.925781 63.472656 351.167969 64.261719 351.328125 65.078125 C 351.492188 65.890625 351.570312 66.710938 351.570312 67.542969 L 351.570312 345.597656 C 351.570312 346.429688 351.492188 347.25 351.328125 348.0625 C 351.167969 348.878906 350.925781 349.667969 350.609375 350.433594 C 350.292969 351.203125 349.902344 351.929688 349.445312 352.621094 C 348.984375 353.308594 348.460938 353.949219 347.875 354.535156 C 347.289062 355.121094 346.648438 355.644531 345.960938 356.105469 C 345.269531 356.566406 344.542969 356.957031 343.777344 357.273438 C 343.011719 357.59375 342.222656 357.832031 341.410156 357.996094 C 340.597656 358.15625 339.773438 358.238281 338.945312 358.238281 Z M 48.554688 332.960938 L 326.320312 332.960938 L 326.320312 80.179688 L 48.554688 80.179688 Z M 48.554688 332.960938 " fill-opacity="1" fill-rule="nonzero"/></g><g clip-path="url(#id2)"><path fill="#000000" d="M 86.433594 80.179688 C 85.601562 80.179688 84.78125 80.101562 83.96875 79.9375 C 83.15625 79.777344 82.367188 79.535156 81.601562 79.21875 C 80.835938 78.902344 80.105469 78.511719 79.417969 78.050781 C 78.726562 77.589844 78.089844 77.066406 77.503906 76.480469 C 76.917969 75.894531 76.394531 75.253906 75.933594 74.5625 C 75.472656 73.875 75.085938 73.144531 74.765625 72.378906 C 74.449219 71.613281 74.210938 70.820312 74.046875 70.007812 C 73.886719 69.195312 73.804688 68.371094 73.804688 67.542969 L 73.804688 29.625 C 73.804688 28.796875 73.886719 27.972656 74.046875 27.160156 C 74.210938 26.347656 74.449219 25.554688 74.765625 24.789062 C 75.085938 24.023438 75.472656 23.292969 75.933594 22.605469 C 76.394531 21.914062 76.917969 21.277344 77.503906 20.6875 C 78.089844 20.101562 78.726562 19.578125 79.417969 19.117188 C 80.105469 18.65625 80.835938 18.265625 81.601562 17.949219 C 82.367188 17.632812 83.15625 17.390625 83.96875 17.230469 C 84.78125 17.066406 85.601562 16.988281 86.433594 16.988281 C 87.261719 16.988281 88.082031 17.066406 88.894531 17.230469 C 89.707031 17.390625 90.496094 17.632812 91.261719 17.949219 C 92.03125 18.265625 92.757812 18.65625 93.445312 19.117188 C 94.136719 19.578125 94.773438 20.101562 95.359375 20.6875 C 95.945312 21.277344 96.46875 21.914062 96.929688 22.605469 C 97.390625 23.292969 97.777344 24.023438 98.097656 24.789062 C 98.414062 25.554688 98.652344 26.347656 98.816406 27.160156 C 98.976562 27.972656 99.058594 28.796875 99.058594 29.625 L 99.058594 67.542969 C 99.058594 68.371094 98.976562 69.195312 98.816406 70.007812 C 98.652344 70.820312 98.414062 71.613281 98.097656 72.378906 C 97.777344 73.144531 97.390625 73.875 96.929688 74.5625 C 96.46875 75.253906 95.945312 75.894531 95.359375 76.480469 C 94.773438 77.066406 94.136719 77.589844 93.445312 78.050781 C 92.757812 78.511719 92.03125 78.902344 91.261719 79.21875 C 90.496094 79.535156 89.707031 79.777344 88.894531 79.9375 C 88.082031 80.101562 87.261719 80.179688 86.433594 80.179688 Z M 86.433594 80.179688 " fill-opacity="1" fill-rule="nonzero"/></g><g clip-path="url(#id3)"><path fill="#000000" d="M 288.441406 80.179688 C 287.613281 80.179688 286.792969 80.101562 285.980469 79.9375 C 285.167969 79.777344 284.378906 79.535156 283.613281 79.21875 C 282.84375 78.902344 282.117188 78.511719 281.429688 78.050781 C 280.738281 77.589844 280.101562 77.066406 279.515625 76.480469 C 278.929688 75.894531 278.40625 75.253906 277.945312 74.5625 C 277.484375 73.875 277.09375 73.144531 276.777344 72.378906 C 276.460938 71.613281 276.222656 70.820312 276.058594 70.007812 C 275.898438 69.195312 275.816406 68.371094 275.816406 67.542969 L 275.816406 29.625 C 275.816406 28.796875 275.898438 27.972656 276.058594 27.160156 C 276.222656 26.347656 276.460938 25.554688 276.777344 24.789062 C 277.09375 24.023438 277.484375 23.292969 277.945312 22.605469 C 278.40625 21.914062 278.929688 21.277344 279.515625 20.6875 C 280.101562 20.101562 280.738281 19.578125 281.429688 19.117188 C 282.117188 18.65625 282.84375 18.265625 283.613281 17.949219 C 284.378906 17.632812 285.167969 17.390625 285.980469 17.230469 C 286.792969 17.066406 287.613281 16.988281 288.441406 16.988281 C 289.273438 16.988281 290.09375 17.066406 290.90625 17.230469 C 291.71875 17.390625 292.507812 17.632812 293.273438 17.949219 C 294.039062 18.265625 294.769531 18.65625 295.457031 19.117188 C 296.148438 19.578125 296.785156 20.101562 297.371094 20.6875 C 297.957031 21.277344 298.480469 21.914062 298.941406 22.605469 C 299.402344 23.292969 299.789062 24.023438 300.109375 24.789062 C 300.425781 25.554688 300.664062 26.347656 300.824219 27.160156 C 300.988281 27.972656 301.070312 28.796875 301.070312 29.625 L 301.070312 67.542969 C 301.070312 68.371094 300.988281 69.195312 300.824219 70.007812 C 300.664062 70.820312 300.425781 71.613281 300.109375 72.378906 C 299.789062 73.144531 299.402344 73.875 298.941406 74.5625 C 298.480469 75.253906 297.957031 75.894531 297.371094 76.480469 C 296.785156 77.066406 296.148438 77.589844 295.457031 78.050781 C 294.769531 78.511719 294.039062 78.902344 293.273438 79.21875 C 292.507812 79.535156 291.71875 79.777344 290.90625 79.9375 C 290.09375 80.101562 289.273438 80.179688 288.441406 80.179688 Z M 288.441406 80.179688 " fill-opacity="1" fill-rule="nonzero"/></g><path fill="#000000" d="M 99.058594 156.015625 L 124.308594 156.015625 L 124.308594 181.292969 L 99.058594 181.292969 Z M 99.058594 156.015625 " fill-opacity="1" fill-rule="nonzero"/><path fill="#000000" d="M 174.8125 156.015625 L 200.0625 156.015625 L 200.0625 181.292969 L 174.8125 181.292969 Z M 174.8125 156.015625 " fill-opacity="1" fill-rule="nonzero"/><path fill="#000000" d="M 250.566406 156.015625 L 275.816406 156.015625 L 275.816406 181.292969 L 250.566406 181.292969 Z M 250.566406 156.015625 " fill-opacity="1" fill-rule="nonzero"/><path fill="#000000" d="M 99.058594 219.210938 L 124.308594 219.210938 L 124.308594 244.488281 L 99.058594 244.488281 Z M 99.058594 219.210938 " fill-opacity="1" fill-rule="nonzero"/><path fill="#000000" d="M 174.8125 219.210938 L 200.0625 219.210938 L 200.0625 244.488281 L 174.8125 244.488281 Z M 174.8125 219.210938 " fill-opacity="1" fill-rule="nonzero"/><path fill="#000000" d="M 250.566406 219.210938 L 275.816406 219.210938 L 275.816406 244.488281 L 250.566406 244.488281 Z M 250.566406 219.210938 " fill-opacity="1" fill-rule="nonzero"/><path fill="#000000" d="M 99.058594 282.402344 L 124.308594 282.402344 L 124.308594 307.679688 L 99.058594 307.679688 Z M 99.058594 282.402344 " fill-opacity="1" fill-rule="nonzero"/><path fill="#000000" d="M 174.8125 282.402344 L 200.0625 282.402344 L 200.0625 307.679688 L 174.8125 307.679688 Z M 174.8125 282.402344 " fill-opacity="1" fill-rule="nonzero"/><path fill="#000000" d="M 250.566406 282.402344 L 275.816406 282.402344 L 275.816406 307.679688 L 250.566406 307.679688 Z M 250.566406 282.402344 " fill-opacity="1" fill-rule="nonzero"/><g clip-path="url(#id4)"><path fill="#000000" d="M 338.945312 136.550781 L 35.929688 136.550781 C 35.101562 136.550781 34.277344 136.46875 33.464844 136.308594 C 32.652344 136.144531 31.863281 135.90625 31.097656 135.589844 C 30.332031 135.269531 29.605469 134.882812 28.914062 134.421875 C 28.226562 133.960938 27.585938 133.4375 27 132.847656 C 26.414062 132.261719 25.890625 131.625 25.429688 130.933594 C 24.96875 130.242188 24.582031 129.515625 24.265625 128.75 C 23.945312 127.980469 23.707031 127.191406 23.546875 126.378906 C 23.382812 125.5625 23.304688 124.742188 23.304688 123.910156 C 23.304688 123.082031 23.382812 122.261719 23.546875 121.445312 C 23.707031 120.632812 23.945312 119.84375 24.265625 119.074219 C 24.582031 118.308594 24.96875 117.582031 25.429688 116.890625 C 25.890625 116.199219 26.414062 115.5625 27 114.976562 C 27.585938 114.386719 28.226562 113.863281 28.914062 113.402344 C 29.605469 112.941406 30.332031 112.554688 31.097656 112.234375 C 31.863281 111.917969 32.652344 111.679688 33.464844 111.515625 C 34.277344 111.355469 35.101562 111.273438 35.929688 111.273438 L 338.945312 111.273438 C 339.773438 111.273438 340.597656 111.355469 341.410156 111.515625 C 342.222656 111.679688 343.011719 111.917969 343.777344 112.234375 C 344.542969 112.554688 345.269531 112.941406 345.960938 113.402344 C 346.648438 113.863281 347.289062 114.386719 347.875 114.976562 C 348.460938 115.5625 348.984375 116.199219 349.445312 116.890625 C 349.902344 117.582031 350.292969 118.308594 350.609375 119.074219 C 350.925781 119.84375 351.167969 120.632812 351.328125 121.445312 C 351.492188 122.261719 351.570312 123.082031 351.570312 123.910156 C 351.570312 124.742188 351.492188 125.5625 351.328125 126.378906 C 351.167969 127.191406 350.925781 127.980469 350.609375 128.75 C 350.292969 129.515625 349.902344 130.242188 349.445312 130.933594 C 348.984375 131.625 348.460938 132.261719 347.875 132.847656 C 347.289062 133.4375 346.648438 133.960938 345.960938 134.421875 C 345.269531 134.882812 344.542969 135.269531 343.777344 135.589844 C 343.011719 135.90625 342.222656 136.144531 341.410156 136.308594 C 340.597656 136.46875 339.773438 136.550781 338.945312 136.550781 Z M 338.945312 136.550781 " fill-opacity="1" fill-rule="nonzero"/></g></svg>