<svg xmlns="http://www.w3.org/2000/svg" xmlns:xlink="http://www.w3.org/1999/xlink" width="500" zoomAndPan="magnify" viewBox="0 0 375 374.999991" height="500" preserveAspectRatio="xMidYMid meet" version="1.0"><defs><clipPath id="id1"><path d="M 89 78.765625 L 363.515625 78.765625 L 363.515625 141 L 89 141 Z M 89 78.765625 " clip-rule="nonzero"/></clipPath><clipPath id="id2"><path d="M 89 234 L 363.515625 234 L 363.515625 296.265625 L 89 296.265625 Z M 89 234 " clip-rule="nonzero"/></clipPath><clipPath id="id3"><path d="M 89 156 L 363.515625 156 L 363.515625 219 L 89 219 Z M 89 156 " clip-rule="nonzero"/></clipPath><clipPath id="id4"><path d="M 12 234 L 75 234 L 75 296.265625 L 12 296.265625 Z M 12 234 " clip-rule="nonzero"/></clipPath><clipPath id="id5"><path d="M 12 78.765625 L 75 78.765625 L 75 141 L 12 141 Z M 12 78.765625 " clip-rule="nonzero"/></clipPath></defs><g clip-path="url(#id1)"><path fill="#000000" d="M 347.273438 78.777344 L 105.378906 78.777344 C 96.648438 78.777344 89.574219 85.847656 89.574219 94.570312 L 89.574219 124.941406 C 89.574219 133.667969 96.648438 140.738281 105.378906 140.738281 L 347.273438 140.738281 C 356.003906 140.738281 363.078125 133.667969 363.078125 124.941406 L 363.078125 94.570312 C 363.078125 85.847656 356.003906 78.777344 347.273438 78.777344 Z M 347.273438 78.777344 " fill-opacity="1" fill-rule="nonzero"/></g><g clip-path="url(#id2)"><path fill="#000000" d="M 347.273438 234.289062 L 105.378906 234.289062 C 96.648438 234.289062 89.574219 241.363281 89.574219 250.085938 L 89.574219 280.457031 C 89.574219 289.179688 96.648438 296.253906 105.378906 296.253906 L 347.273438 296.253906 C 356.003906 296.253906 363.078125 289.179688 363.078125 280.457031 L 363.078125 250.085938 C 363.078125 241.363281 356.003906 234.289062 347.273438 234.289062 Z M 347.273438 234.289062 " fill-opacity="1" fill-rule="nonzero"/></g><g clip-path="url(#id3)"><path fill="#000000" d="M 347.273438 156.53125 L 105.378906 156.53125 C 96.648438 156.53125 89.574219 163.605469 89.574219 172.328125 L 89.574219 202.699219 C 89.574219 211.421875 96.648438 218.496094 105.378906 218.496094 L 347.273438 218.496094 C 356.003906 218.496094 363.078125 211.421875 363.078125 202.699219 L 363.078125 172.328125 C 363.078125 163.605469 356.003906 156.53125 347.273438 156.53125 Z M 347.273438 156.53125 " fill-opacity="1" fill-rule="nonzero"/></g><path fill="#000000" d="M 74.203125 187.515625 C 74.203125 188.527344 74.152344 189.539062 74.054688 190.550781 C 73.953125 191.558594 73.804688 192.5625 73.605469 193.558594 C 73.410156 194.554688 73.160156 195.535156 72.867188 196.507812 C 72.574219 197.476562 72.230469 198.433594 71.84375 199.371094 C 71.453125 200.308594 71.019531 201.222656 70.542969 202.117188 C 70.0625 203.011719 69.542969 203.882812 68.976562 204.726562 C 68.414062 205.570312 67.808594 206.382812 67.164062 207.167969 C 66.519531 207.953125 65.839844 208.703125 65.121094 209.421875 C 64.402344 210.136719 63.652344 210.820312 62.867188 211.464844 C 62.082031 212.105469 61.269531 212.710938 60.425781 213.273438 C 59.578125 213.835938 58.710938 214.359375 57.816406 214.835938 C 56.917969 215.316406 56.003906 215.75 55.0625 216.136719 C 54.125 216.527344 53.171875 216.867188 52.199219 217.160156 C 51.226562 217.457031 50.246094 217.703125 49.25 217.898438 C 48.253906 218.097656 47.25 218.246094 46.238281 218.347656 C 45.230469 218.445312 44.214844 218.496094 43.199219 218.496094 C 42.183594 218.496094 41.171875 218.445312 40.160156 218.347656 C 39.152344 218.246094 38.148438 218.097656 37.152344 217.898438 C 36.15625 217.703125 35.171875 217.457031 34.203125 217.160156 C 33.230469 216.867188 32.273438 216.527344 31.335938 216.136719 C 30.398438 215.75 29.480469 215.316406 28.585938 214.835938 C 27.691406 214.359375 26.820312 213.835938 25.976562 213.273438 C 25.132812 212.710938 24.320312 212.105469 23.535156 211.464844 C 22.75 210.820312 21.996094 210.136719 21.28125 209.421875 C 20.5625 208.703125 19.878906 207.953125 19.238281 207.167969 C 18.59375 206.382812 17.988281 205.570312 17.425781 204.726562 C 16.859375 203.882812 16.339844 203.011719 15.859375 202.117188 C 15.382812 201.222656 14.949219 200.308594 14.558594 199.371094 C 14.171875 198.433594 13.828125 197.476562 13.535156 196.507812 C 13.238281 195.535156 12.992188 194.554688 12.796875 193.558594 C 12.597656 192.5625 12.449219 191.558594 12.347656 190.550781 C 12.25 189.539062 12.199219 188.527344 12.199219 187.515625 C 12.199219 186.5 12.25 185.488281 12.347656 184.476562 C 12.449219 183.46875 12.597656 182.464844 12.796875 181.46875 C 12.992188 180.472656 13.238281 179.492188 13.535156 178.519531 C 13.828125 177.550781 14.171875 176.59375 14.558594 175.65625 C 14.949219 174.71875 15.382812 173.804688 15.859375 172.910156 C 16.339844 172.015625 16.859375 171.144531 17.425781 170.300781 C 17.988281 169.457031 18.59375 168.644531 19.238281 167.859375 C 19.878906 167.074219 20.5625 166.324219 21.28125 165.605469 C 21.996094 164.890625 22.75 164.207031 23.535156 163.566406 C 24.320312 162.921875 25.132812 162.316406 25.976562 161.753906 C 26.820312 161.191406 27.691406 160.667969 28.585938 160.191406 C 29.480469 159.710938 30.398438 159.277344 31.335938 158.890625 C 32.273438 158.503906 33.230469 158.160156 34.203125 157.867188 C 35.171875 157.570312 36.15625 157.324219 37.152344 157.128906 C 38.148438 156.929688 39.152344 156.78125 40.160156 156.679688 C 41.171875 156.582031 42.183594 156.53125 43.199219 156.53125 C 44.214844 156.53125 45.230469 156.582031 46.238281 156.679688 C 47.25 156.78125 48.253906 156.929688 49.25 157.128906 C 50.246094 157.324219 51.226562 157.570312 52.199219 157.867188 C 53.171875 158.160156 54.125 158.503906 55.0625 158.890625 C 56.003906 159.277344 56.917969 159.710938 57.816406 160.191406 C 58.710938 160.667969 59.578125 161.191406 60.425781 161.753906 C 61.269531 162.316406 62.082031 162.921875 62.867188 163.566406 C 63.652344 164.207031 64.402344 164.890625 65.121094 165.605469 C 65.839844 166.324219 66.519531 167.074219 67.164062 167.859375 C 67.808594 168.644531 68.414062 169.457031 68.976562 170.300781 C 69.542969 171.144531 70.0625 172.015625 70.542969 172.910156 C 71.019531 173.804688 71.453125 174.71875 71.84375 175.65625 C 72.230469 176.59375 72.574219 177.550781 72.867188 178.519531 C 73.160156 179.492188 73.410156 180.472656 73.605469 181.46875 C 73.804688 182.464844 73.953125 183.46875 74.054688 184.476562 C 74.152344 185.488281 74.203125 186.5 74.203125 187.515625 Z M 74.203125 187.515625 " fill-opacity="1" fill-rule="nonzero"/><g clip-path="url(#id4)"><path fill="#000000" d="M 74.203125 265.269531 C 74.203125 266.285156 74.152344 267.296875 74.054688 268.308594 C 73.953125 269.316406 73.804688 270.320312 73.605469 271.316406 C 73.410156 272.3125 73.160156 273.292969 72.867188 274.265625 C 72.574219 275.234375 72.230469 276.191406 71.84375 277.128906 C 71.453125 278.066406 71.019531 278.980469 70.542969 279.875 C 70.0625 280.769531 69.542969 281.640625 68.976562 282.484375 C 68.414062 283.328125 67.808594 284.140625 67.164062 284.925781 C 66.519531 285.710938 65.839844 286.460938 65.121094 287.179688 C 64.402344 287.894531 63.652344 288.578125 62.867188 289.21875 C 62.082031 289.863281 61.269531 290.46875 60.425781 291.03125 C 59.578125 291.59375 58.710938 292.117188 57.816406 292.59375 C 56.917969 293.074219 56.003906 293.507812 55.0625 293.894531 C 54.125 294.28125 53.171875 294.625 52.199219 294.917969 C 51.226562 295.214844 50.246094 295.460938 49.25 295.65625 C 48.253906 295.855469 47.25 296.003906 46.238281 296.105469 C 45.230469 296.203125 44.214844 296.253906 43.199219 296.253906 C 42.183594 296.253906 41.171875 296.203125 40.160156 296.105469 C 39.152344 296.003906 38.148438 295.855469 37.152344 295.65625 C 36.15625 295.460938 35.171875 295.214844 34.203125 294.917969 C 33.230469 294.625 32.273438 294.28125 31.335938 293.894531 C 30.398438 293.507812 29.480469 293.074219 28.585938 292.59375 C 27.691406 292.117188 26.820312 291.59375 25.976562 291.03125 C 25.132812 290.46875 24.320312 289.863281 23.535156 289.21875 C 22.75 288.578125 21.996094 287.894531 21.28125 287.179688 C 20.5625 286.460938 19.878906 285.710938 19.238281 284.925781 C 18.59375 284.140625 17.988281 283.328125 17.425781 282.484375 C 16.859375 281.640625 16.339844 280.769531 15.859375 279.875 C 15.382812 278.980469 14.949219 278.066406 14.558594 277.128906 C 14.171875 276.191406 13.828125 275.234375 13.535156 274.265625 C 13.238281 273.292969 12.992188 272.3125 12.796875 271.316406 C 12.597656 270.320312 12.449219 269.316406 12.347656 268.308594 C 12.25 267.296875 12.199219 266.285156 12.199219 265.269531 C 12.199219 264.257812 12.25 263.246094 12.347656 262.234375 C 12.449219 261.226562 12.597656 260.222656 12.796875 259.226562 C 12.992188 258.230469 13.238281 257.25 13.535156 256.277344 C 13.828125 255.308594 14.171875 254.351562 14.558594 253.414062 C 14.949219 252.476562 15.382812 251.5625 15.859375 250.667969 C 16.339844 249.773438 16.859375 248.902344 17.425781 248.058594 C 17.988281 247.214844 18.59375 246.402344 19.238281 245.617188 C 19.878906 244.832031 20.5625 244.082031 21.28125 243.363281 C 21.996094 242.648438 22.75 241.964844 23.535156 241.324219 C 24.320312 240.679688 25.132812 240.074219 25.976562 239.511719 C 26.820312 238.949219 27.691406 238.425781 28.585938 237.949219 C 29.480469 237.46875 30.398438 237.035156 31.335938 236.648438 C 32.273438 236.261719 33.230469 235.917969 34.203125 235.625 C 35.171875 235.328125 36.15625 235.082031 37.152344 234.886719 C 38.148438 234.6875 39.152344 234.539062 40.160156 234.4375 C 41.171875 234.339844 42.183594 234.289062 43.199219 234.289062 C 44.214844 234.289062 45.230469 234.339844 46.238281 234.4375 C 47.25 234.539062 48.253906 234.6875 49.25 234.886719 C 50.246094 235.082031 51.226562 235.328125 52.199219 235.625 C 53.171875 235.917969 54.125 236.261719 55.0625 236.648438 C 56.003906 237.035156 56.917969 237.46875 57.816406 237.949219 C 58.710938 238.425781 59.578125 238.949219 60.425781 239.511719 C 61.269531 240.074219 62.082031 240.679688 62.867188 241.324219 C 63.652344 241.964844 64.402344 242.648438 65.121094 243.363281 C 65.839844 244.082031 66.519531 244.832031 67.164062 245.617188 C 67.808594 246.402344 68.414062 247.214844 68.976562 248.058594 C 69.542969 248.902344 70.0625 249.773438 70.542969 250.667969 C 71.019531 251.5625 71.453125 252.476562 71.84375 253.414062 C 72.230469 254.351562 72.574219 255.308594 72.867188 256.277344 C 73.160156 257.25 73.410156 258.230469 73.605469 259.226562 C 73.804688 260.222656 73.953125 261.226562 74.054688 262.234375 C 74.152344 263.246094 74.203125 264.257812 74.203125 265.269531 Z M 74.203125 265.269531 " fill-opacity="1" fill-rule="nonzero"/></g><g clip-path="url(#id5)"><path fill="#000000" d="M 74.203125 109.757812 C 74.203125 110.769531 74.152344 111.785156 74.054688 112.792969 C 73.953125 113.804688 73.804688 114.804688 73.605469 115.800781 C 73.410156 116.796875 73.160156 117.777344 72.867188 118.75 C 72.574219 119.722656 72.230469 120.675781 71.84375 121.613281 C 71.453125 122.550781 71.019531 123.464844 70.542969 124.359375 C 70.0625 125.257812 69.542969 126.125 68.976562 126.96875 C 68.414062 127.8125 67.808594 128.625 67.164062 129.410156 C 66.519531 130.195312 65.839844 130.945312 65.121094 131.664062 C 64.402344 132.382812 63.652344 133.0625 62.867188 133.707031 C 62.082031 134.347656 61.269531 134.953125 60.425781 135.515625 C 59.578125 136.082031 58.710938 136.601562 57.816406 137.078125 C 56.917969 137.558594 56.003906 137.992188 55.0625 138.378906 C 54.125 138.769531 53.171875 139.109375 52.199219 139.402344 C 51.226562 139.699219 50.246094 139.945312 49.25 140.144531 C 48.253906 140.339844 47.25 140.488281 46.238281 140.589844 C 45.230469 140.6875 44.214844 140.738281 43.199219 140.738281 C 42.183594 140.738281 41.171875 140.6875 40.160156 140.589844 C 39.152344 140.488281 38.148438 140.339844 37.152344 140.144531 C 36.15625 139.945312 35.171875 139.699219 34.203125 139.402344 C 33.230469 139.109375 32.273438 138.769531 31.335938 138.378906 C 30.398438 137.992188 29.480469 137.558594 28.585938 137.078125 C 27.691406 136.601562 26.820312 136.082031 25.976562 135.515625 C 25.132812 134.953125 24.320312 134.347656 23.535156 133.707031 C 22.75 133.0625 21.996094 132.382812 21.28125 131.664062 C 20.5625 130.945312 19.878906 130.195312 19.238281 129.410156 C 18.59375 128.625 17.988281 127.8125 17.425781 126.96875 C 16.859375 126.125 16.339844 125.257812 15.859375 124.359375 C 15.382812 123.464844 14.949219 122.550781 14.558594 121.613281 C 14.171875 120.675781 13.828125 119.722656 13.535156 118.75 C 13.238281 117.777344 12.992188 116.796875 12.796875 115.800781 C 12.597656 114.804688 12.449219 113.804688 12.347656 112.792969 C 12.25 111.785156 12.199219 110.769531 12.199219 109.757812 C 12.199219 108.742188 12.25 107.730469 12.347656 106.71875 C 12.449219 105.710938 12.597656 104.707031 12.796875 103.710938 C 12.992188 102.71875 13.238281 101.734375 13.535156 100.761719 C 13.828125 99.792969 14.171875 98.835938 14.558594 97.898438 C 14.949219 96.964844 15.382812 96.046875 15.859375 95.152344 C 16.339844 94.257812 16.859375 93.386719 17.425781 92.542969 C 17.988281 91.699219 18.59375 90.886719 19.238281 90.101562 C 19.878906 89.316406 20.5625 88.566406 21.28125 87.847656 C 21.996094 87.132812 22.75 86.453125 23.535156 85.808594 C 24.320312 85.164062 25.132812 84.558594 25.976562 83.996094 C 26.820312 83.433594 27.691406 82.910156 28.585938 82.433594 C 29.480469 81.953125 30.398438 81.523438 31.335938 81.132812 C 32.273438 80.746094 33.230469 80.402344 34.203125 80.109375 C 35.171875 79.816406 36.15625 79.566406 37.152344 79.371094 C 38.148438 79.171875 39.152344 79.023438 40.160156 78.925781 C 41.171875 78.824219 42.183594 78.773438 43.199219 78.773438 C 44.214844 78.773438 45.230469 78.824219 46.238281 78.925781 C 47.25 79.023438 48.253906 79.171875 49.25 79.371094 C 50.246094 79.566406 51.226562 79.816406 52.199219 80.109375 C 53.171875 80.402344 54.125 80.746094 55.0625 81.132812 C 56.003906 81.523438 56.917969 81.953125 57.816406 82.433594 C 58.710938 82.910156 59.578125 83.433594 60.425781 83.996094 C 61.269531 84.558594 62.082031 85.164062 62.867188 85.808594 C 63.652344 86.453125 64.402344 87.132812 65.121094 87.847656 C 65.839844 88.566406 66.519531 89.316406 67.164062 90.101562 C 67.808594 90.886719 68.414062 91.699219 68.976562 92.542969 C 69.542969 93.386719 70.0625 94.257812 70.542969 95.152344 C 71.019531 96.046875 71.453125 96.964844 71.84375 97.898438 C 72.230469 98.835938 72.574219 99.792969 72.867188 100.761719 C 73.160156 101.734375 73.410156 102.71875 73.605469 103.710938 C 73.804688 104.707031 73.953125 105.710938 74.054688 106.71875 C 74.152344 107.730469 74.203125 108.742188 74.203125 109.757812 Z M 74.203125 109.757812 " fill-opacity="1" fill-rule="nonzero"/></g></svg>