<svg xmlns="http://www.w3.org/2000/svg" xmlns:xlink="http://www.w3.org/1999/xlink" width="500" zoomAndPan="magnify" viewBox="0 0 375 374.999991" height="500" preserveAspectRatio="xMidYMid meet" version="1.0"><defs><clipPath id="id1"><path d="M 73.214844 277 L 307 277 L 307 362.019531 L 73.214844 362.019531 Z M 73.214844 277 " clip-rule="nonzero"/></clipPath><clipPath id="id2"><path d="M 73.214844 20.769531 L 307 20.769531 L 307 353 L 73.214844 353 Z M 73.214844 20.769531 " clip-rule="nonzero"/></clipPath><clipPath id="id3"><path d="M 277 20.769531 L 307 20.769531 L 307 353 L 277 353 Z M 277 20.769531 " clip-rule="nonzero"/></clipPath><clipPath id="id4"><path d="M 111 20.769531 L 156 20.769531 L 156 71 L 111 71 Z M 111 20.769531 " clip-rule="nonzero"/></clipPath></defs><g clip-path="url(#id1)"><path fill="#000000" d="M 306.628906 277.125 L 73.488281 277.125 L 73.488281 353.617188 C 73.488281 358.261719 77.246094 362.019531 81.890625 362.019531 L 279.40625 362.019531 C 294.445312 362.019531 306.628906 349.84375 306.628906 334.824219 L 306.628906 277.125 " fill-opacity="1" fill-rule="nonzero"/></g><g clip-path="url(#id2)"><path fill="#000000" d="M 79.917969 20.769531 L 285.644531 20.769531 C 297.234375 20.769531 306.628906 30.160156 306.628906 41.730469 L 306.628906 331.066406 C 306.628906 342.636719 297.234375 352.042969 285.644531 352.042969 L 78.339844 352.042969 L 81.128906 343.417969 L 82.914062 337.871094 L 91.804688 310.417969 L 79.917969 310.417969 C 76.363281 310.417969 73.488281 307.542969 73.488281 304.007812 L 73.488281 27.179688 C 73.488281 23.644531 76.363281 20.769531 79.917969 20.769531 " fill-opacity="1" fill-rule="nonzero"/></g><g clip-path="url(#id3)"><path fill="#000000" d="M 277.707031 20.769531 L 285.644531 20.769531 C 297.234375 20.769531 306.628906 30.160156 306.628906 41.730469 L 306.628906 331.066406 C 306.628906 342.636719 297.234375 352.042969 285.644531 352.042969 L 277.707031 352.042969 L 277.707031 20.769531 " fill-opacity="1" fill-rule="nonzero"/></g><path fill="#000000" d="M 78.339844 310.417969 L 280.253906 310.417969 C 291.082031 310.417969 299.957031 319.285156 299.957031 330.128906 L 299.957031 332.328125 C 299.957031 343.15625 291.082031 352.042969 280.253906 352.042969 L 78.339844 352.042969 L 78.339844 310.417969 " fill-opacity="1" fill-rule="nonzero"/><g clip-path="url(#id4)"><path fill="#ffcc99" d="M 111.785156 70.710938 L 133.445312 57.390625 L 155.089844 70.710938 L 155.089844 20.769531 L 111.785156 20.769531 L 111.785156 70.710938 " fill-opacity="1" fill-rule="nonzero"/></g></svg>