<svg xmlns="http://www.w3.org/2000/svg" xmlns:xlink="http://www.w3.org/1999/xlink" width="500" zoomAndPan="magnify" viewBox="0 0 375 374.999991" height="500" preserveAspectRatio="xMidYMid meet" version="1.0"><path fill="#000000" d="M 293.214844 50.28125 C 283.226562 41.800781 263.851562 53.3125 273.234375 65.730469 C 290.492188 88.144531 307.445312 109.351562 316.527344 136.613281 C 324.398438 160.238281 326.820312 185.378906 323.1875 209.914062 C 316.527344 256.867188 288.371094 299.878906 246.289062 322.597656 C 197.851562 348.648438 136.089844 342.285156 95.21875 305.027344 C 47.386719 260.804688 43.148438 196.285156 65.246094 138.125 C 78.570312 103.292969 100.667969 72.699219 133.667969 54.523438 C 168.183594 35.742188 209.960938 31.503906 246.894531 44.832031 C 250.832031 46.042969 253.253906 39.984375 249.921875 37.863281 C 183.015625 0 103.394531 33.015625 62.21875 92.691406 C 21.652344 151.453125 11.054688 234.148438 52.835938 295.03125 C 91.285156 350.765625 159.097656 375 224.191406 357.128906 C 279.289062 341.984375 322.582031 298.0625 341.050781 244.445312 C 363.757812 179.925781 347.105469 95.414062 293.214844 50.28125 Z M 293.214844 50.28125 " fill-opacity="1" fill-rule="nonzero"/><path fill="#000000" d="M 238.417969 262.316406 C 246.894531 259.894531 251.4375 254.140625 257.492188 248.382812 C 265.363281 241.113281 274.144531 235.964844 283.527344 231.421875 C 293.519531 226.574219 288.976562 213.246094 280.804688 209.914062 C 275.65625 207.792969 270.511719 205.371094 265.363281 202.949219 C 257.191406 195.679688 248.105469 191.136719 236.90625 186.894531 C 224.191406 182.046875 219.042969 200.222656 228.429688 207.1875 C 230.851562 209.007812 233.273438 210.519531 235.695312 212.339844 C 216.320312 212.640625 196.941406 212.339844 177.566406 212.035156 C 178.171875 182.351562 180.59375 152.664062 182.109375 122.980469 C 182.109375 122.980469 182.109375 123.285156 182.109375 123.285156 C 186.042969 131.160156 189.375 138.730469 194.824219 145.394531 C 200.273438 152.363281 211.171875 144.789062 209.050781 137.21875 C 206.023438 126.007812 199.363281 115.710938 193.914062 105.714844 C 189.980469 98.445312 186.347656 86.632812 176.660156 85.421875 C 168.183594 84.207031 162.429688 93.597656 157.886719 99.050781 C 150.320312 107.835938 141.539062 117.527344 136.695312 128.128906 C 134.878906 132.371094 138.816406 137.519531 143.355469 134.792969 C 150.320312 130.855469 156.070312 124.796875 161.824219 119.347656 C 162.730469 118.4375 163.640625 117.527344 164.546875 116.316406 C 158.796875 151.152344 157.585938 187.195312 157.28125 222.335938 C 157.28125 227.785156 161.824219 232.027344 167.273438 232.332031 C 191.796875 233.238281 216.015625 233.238281 240.539062 232.332031 C 233.574219 238.996094 228.730469 246.871094 228.125 255.652344 C 228.125 259.59375 233.574219 263.53125 238.417969 262.316406 Z M 238.417969 262.316406 " fill-opacity="1" fill-rule="nonzero"/></svg>