<svg xmlns="http://www.w3.org/2000/svg" xmlns:xlink="http://www.w3.org/1999/xlink" width="500" zoomAndPan="magnify" viewBox="0 0 375 374.999991" height="500" preserveAspectRatio="xMidYMid meet" version="1.0"><defs><clipPath id="id1"><path d="M 157 323 L 220 323 L 220 364.261719 L 157 364.261719 Z M 157 323 " clip-rule="nonzero"/></clipPath><clipPath id="id2"><path d="M 184 11.011719 L 195 11.011719 L 195 63 L 184 63 Z M 184 11.011719 " clip-rule="nonzero"/></clipPath><clipPath id="id3"><path d="M 281 138 L 328.199219 138 L 328.199219 149 L 281 149 Z M 281 138 " clip-rule="nonzero"/></clipPath><clipPath id="id4"><path d="M 46.949219 136 L 94 136 L 94 147 L 46.949219 147 Z M 46.949219 136 " clip-rule="nonzero"/></clipPath></defs><path fill="#000000" d="M 226.417969 284.484375 L 149.886719 284.484375 C 147.023438 284.484375 144.6875 282.148438 144.6875 279.28125 L 144.6875 265.421875 C 144.6875 246.640625 137.726562 228.210938 125.082031 213.535156 C 112.089844 198.449219 104.929688 179.164062 104.929688 159.226562 C 104.929688 115.167969 139.347656 78.667969 183.289062 76.128906 C 207.078125 74.757812 230.402344 83.777344 247.265625 100.890625 C 264.140625 118 272.84375 141.453125 271.144531 165.242188 C 269.847656 183.417969 262.804688 200.285156 250.785156 214.027344 C 238.417969 228.15625 231.609375 246.324219 231.609375 265.1875 L 231.609375 279.289062 C 231.617188 282.148438 229.28125 284.484375 226.417969 284.484375 Z M 154.984375 274.175781 L 221.304688 274.175781 L 221.304688 265.179688 C 221.304688 243.824219 229.019531 223.242188 243.027344 207.238281 C 253.558594 195.199219 259.730469 180.425781 260.867188 164.503906 C 262.351562 143.679688 254.71875 123.125 239.929688 108.132812 C 225.140625 93.136719 204.714844 85.214844 183.878906 86.429688 C 145.386719 88.652344 115.234375 120.628906 115.234375 159.242188 C 115.234375 176.710938 121.5 193.605469 132.882812 206.820312 C 147.140625 223.367188 154.984375 244.179688 154.984375 265.433594 Z M 154.984375 274.175781 " fill-opacity="1" fill-rule="nonzero"/><path fill="#000000" d="M 227.914062 301.085938 L 148.375 301.085938 C 141.058594 301.085938 135.109375 295.128906 135.109375 287.808594 L 135.109375 287.445312 C 135.109375 280.125 141.058594 274.175781 148.375 274.175781 L 227.914062 274.175781 C 235.230469 274.175781 241.179688 280.125 241.179688 287.445312 L 241.179688 287.808594 C 241.1875 295.128906 235.230469 301.085938 227.914062 301.085938 Z M 148.375 284.484375 C 146.769531 284.484375 145.414062 285.84375 145.414062 287.445312 L 145.414062 287.808594 C 145.414062 289.417969 146.773438 290.777344 148.375 290.777344 L 227.914062 290.777344 C 229.523438 290.777344 230.875 289.417969 230.875 287.808594 L 230.875 287.445312 C 230.875 285.835938 229.515625 284.484375 227.914062 284.484375 Z M 148.375 284.484375 " fill-opacity="1" fill-rule="nonzero"/><path fill="#000000" d="M 227.914062 317.6875 L 148.375 317.6875 C 141.058594 317.6875 135.109375 311.734375 135.109375 304.417969 L 135.109375 304.054688 C 135.109375 296.734375 141.058594 290.785156 148.375 290.785156 L 227.914062 290.785156 C 235.230469 290.785156 241.179688 296.734375 241.179688 304.054688 L 241.179688 304.417969 C 241.1875 311.730469 235.230469 317.6875 227.914062 317.6875 Z M 148.375 301.085938 C 146.769531 301.085938 145.414062 302.445312 145.414062 304.046875 L 145.414062 304.410156 C 145.414062 306.019531 146.773438 307.371094 148.375 307.371094 L 227.914062 307.371094 C 229.523438 307.371094 230.875 306.011719 230.875 304.410156 L 230.875 304.046875 C 230.875 302.4375 229.515625 301.085938 227.914062 301.085938 Z M 148.375 301.085938 " fill-opacity="1" fill-rule="nonzero"/><path fill="#000000" d="M 227.914062 334.28125 L 148.375 334.28125 C 141.058594 334.28125 135.109375 328.332031 135.109375 321.011719 L 135.109375 320.648438 C 135.109375 313.328125 141.058594 307.371094 148.375 307.371094 L 227.914062 307.371094 C 235.230469 307.371094 241.179688 313.328125 241.179688 320.648438 L 241.179688 321.011719 C 241.1875 328.332031 235.230469 334.28125 227.914062 334.28125 Z M 148.375 317.6875 C 146.769531 317.6875 145.414062 319.046875 145.414062 320.65625 L 145.414062 321.011719 C 145.414062 322.621094 146.773438 323.972656 148.375 323.972656 L 227.914062 323.972656 C 229.523438 323.972656 230.875 322.613281 230.875 321.011719 L 230.875 320.648438 C 230.875 319.039062 229.515625 317.679688 227.914062 317.679688 L 148.375 317.679688 Z M 148.375 317.6875 " fill-opacity="1" fill-rule="nonzero"/><g clip-path="url(#id1)"><path fill="#000000" d="M 188.707031 364.199219 L 187.582031 364.199219 C 170.839844 364.199219 157.21875 350.574219 157.21875 333.828125 L 157.21875 329.128906 C 157.21875 326.28125 159.527344 323.972656 162.371094 323.972656 L 213.921875 323.972656 C 216.765625 323.972656 219.074219 326.28125 219.074219 329.128906 L 219.074219 333.828125 C 219.074219 350.574219 205.449219 364.199219 188.707031 364.199219 Z M 167.527344 334.28125 C 167.769531 345.136719 176.671875 353.894531 187.582031 353.894531 L 188.707031 353.894531 C 199.617188 353.894531 208.519531 345.136719 208.761719 334.28125 Z M 167.527344 334.28125 " fill-opacity="1" fill-rule="nonzero"/></g><g clip-path="url(#id2)"><path fill="#000000" d="M 189.800781 62.113281 C 186.957031 62.113281 184.648438 59.804688 184.648438 56.957031 L 184.648438 16.257812 C 184.648438 13.414062 186.957031 11.105469 189.800781 11.105469 C 192.644531 11.105469 194.953125 13.414062 194.953125 16.257812 L 194.953125 56.957031 C 194.953125 59.808594 192.644531 62.113281 189.800781 62.113281 Z M 189.800781 62.113281 " fill-opacity="1" fill-rule="nonzero"/></g><path fill="#000000" d="M 257 88.765625 C 255.683594 88.765625 254.363281 88.265625 253.359375 87.253906 C 251.347656 85.242188 251.347656 81.976562 253.359375 79.964844 L 280.042969 53.277344 C 282.054688 51.261719 285.320312 51.261719 287.332031 53.277344 C 289.34375 55.289062 289.34375 58.554688 287.332031 60.566406 L 260.648438 87.253906 C 259.640625 88.257812 258.320312 88.765625 257 88.765625 Z M 257 88.765625 " fill-opacity="1" fill-rule="nonzero"/><g clip-path="url(#id3)"><path fill="#000000" d="M 323.074219 148.34375 L 286.664062 148.34375 C 283.820312 148.34375 281.511719 146.035156 281.511719 143.191406 C 281.511719 140.34375 283.820312 138.035156 286.664062 138.035156 L 323.074219 138.035156 C 325.917969 138.035156 328.226562 140.34375 328.226562 143.191406 C 328.226562 146.035156 325.917969 148.34375 323.074219 148.34375 Z M 323.074219 148.34375 " fill-opacity="1" fill-rule="nonzero"/></g><path fill="#000000" d="M 118.175781 86.734375 C 116.855469 86.734375 115.539062 86.230469 114.535156 85.222656 L 87.851562 58.53125 C 85.839844 56.519531 85.839844 53.253906 87.851562 51.242188 C 89.867188 49.226562 93.128906 49.226562 95.140625 51.242188 L 121.824219 77.929688 C 123.835938 79.945312 123.835938 83.207031 121.824219 85.222656 C 120.8125 86.226562 119.496094 86.734375 118.175781 86.734375 Z M 118.175781 86.734375 " fill-opacity="1" fill-rule="nonzero"/><g clip-path="url(#id4)"><path fill="#000000" d="M 88.511719 146.308594 L 52.101562 146.308594 C 49.257812 146.308594 46.949219 144 46.949219 141.15625 C 46.949219 138.3125 49.257812 136.003906 52.101562 136.003906 L 88.511719 136.003906 C 91.355469 136.003906 93.664062 138.3125 93.664062 141.15625 C 93.664062 144 91.355469 146.308594 88.511719 146.308594 Z M 88.511719 146.308594 " fill-opacity="1" fill-rule="nonzero"/></g><path fill="#000000" d="M 215.6875 198.910156 C 214.867188 198.910156 214.042969 198.71875 213.289062 198.320312 L 189.800781 185.964844 L 166.3125 198.320312 C 164.574219 199.234375 162.472656 199.082031 160.886719 197.929688 C 159.300781 196.773438 158.503906 194.824219 158.839844 192.890625 L 163.324219 166.730469 L 144.324219 148.207031 C 142.921875 146.839844 142.414062 144.792969 143.015625 142.921875 C 143.621094 141.058594 145.238281 139.699219 147.171875 139.417969 L 173.4375 135.605469 L 185.183594 111.800781 C 186.050781 110.042969 187.84375 108.929688 189.808594 108.929688 C 191.765625 108.929688 193.558594 110.042969 194.429688 111.800781 L 206.179688 135.605469 L 232.441406 139.417969 C 234.386719 139.699219 235.992188 141.058594 236.597656 142.921875 C 237.203125 144.792969 236.699219 146.839844 235.292969 148.207031 L 216.289062 166.730469 L 220.777344 192.890625 C 221.105469 194.824219 220.316406 196.78125 218.730469 197.929688 C 217.824219 198.582031 216.757812 198.910156 215.6875 198.910156 Z M 189.800781 174.992188 C 190.625 174.992188 191.449219 175.191406 192.199219 175.582031 L 208.84375 184.335938 L 205.664062 165.796875 C 205.375 164.128906 205.929688 162.417969 207.148438 161.234375 L 220.613281 148.101562 L 202 145.394531 C 200.324219 145.15625 198.875 144.097656 198.121094 142.578125 L 189.792969 125.707031 L 181.46875 142.578125 C 180.71875 144.097656 179.269531 145.15625 177.585938 145.394531 L 158.976562 148.101562 L 172.441406 161.234375 C 173.65625 162.417969 174.207031 164.128906 173.925781 165.796875 L 170.742188 184.335938 L 187.390625 175.582031 C 188.152344 175.191406 188.976562 174.992188 189.800781 174.992188 Z M 189.800781 174.992188 " fill-opacity="1" fill-rule="nonzero"/></svg>