<svg xmlns="http://www.w3.org/2000/svg" xmlns:xlink="http://www.w3.org/1999/xlink" width="500" zoomAndPan="magnify" viewBox="0 0 375 374.999991" height="500" preserveAspectRatio="xMidYMid meet" version="1.0"><defs><clipPath id="id1"><path d="M 20.667969 20.667969 L 354.417969 20.667969 L 354.417969 354.417969 L 20.667969 354.417969 Z M 20.667969 20.667969 " clip-rule="nonzero"/></clipPath></defs><g clip-path="url(#id1)"><path fill="#000000" d="M 187.542969 20.738281 C 95.421875 20.738281 20.738281 95.421875 20.738281 187.542969 C 20.738281 279.667969 95.421875 354.351562 187.542969 354.351562 C 279.667969 354.351562 354.351562 279.667969 354.351562 187.542969 C 354.351562 95.421875 279.667969 20.738281 187.542969 20.738281 Z M 187.542969 335.089844 C 106.054688 335.089844 39.996094 269.03125 39.996094 187.542969 C 39.996094 106.054688 106.054688 39.996094 187.542969 39.996094 C 269.03125 39.996094 335.089844 106.054688 335.089844 187.542969 C 335.089844 269.03125 269.03125 335.089844 187.542969 335.089844 Z M 187.542969 335.089844 " fill-opacity="1" fill-rule="nonzero"/></g><path fill="#000000" d="M 214.058594 187.542969 C 214.058594 188.414062 214.015625 189.277344 213.929688 190.144531 C 213.84375 191.007812 213.71875 191.863281 213.546875 192.714844 C 213.378906 193.566406 213.167969 194.410156 212.914062 195.242188 C 212.664062 196.070312 212.371094 196.886719 212.039062 197.691406 C 211.707031 198.492188 211.335938 199.277344 210.925781 200.042969 C 210.515625 200.808594 210.070312 201.550781 209.589844 202.273438 C 209.105469 202.996094 208.589844 203.691406 208.039062 204.363281 C 207.488281 205.035156 206.90625 205.675781 206.292969 206.292969 C 205.675781 206.90625 205.035156 207.488281 204.363281 208.039062 C 203.691406 208.589844 202.996094 209.105469 202.273438 209.589844 C 201.550781 210.070312 200.808594 210.515625 200.042969 210.925781 C 199.277344 211.335938 198.492188 211.707031 197.691406 212.039062 C 196.886719 212.371094 196.070312 212.664062 195.242188 212.914062 C 194.410156 213.167969 193.566406 213.378906 192.714844 213.546875 C 191.863281 213.71875 191.007812 213.84375 190.144531 213.929688 C 189.277344 214.015625 188.414062 214.058594 187.542969 214.058594 C 186.675781 214.058594 185.808594 214.015625 184.945312 213.929688 C 184.082031 213.84375 183.222656 213.71875 182.371094 213.546875 C 181.519531 213.378906 180.679688 213.167969 179.847656 212.914062 C 179.015625 212.664062 178.199219 212.371094 177.398438 212.039062 C 176.59375 211.707031 175.8125 211.335938 175.046875 210.925781 C 174.28125 210.515625 173.535156 210.070312 172.8125 209.589844 C 172.09375 209.105469 171.394531 208.589844 170.722656 208.039062 C 170.054688 207.488281 169.410156 206.90625 168.796875 206.292969 C 168.183594 205.675781 167.601562 205.035156 167.050781 204.363281 C 166.496094 203.691406 165.980469 202.996094 165.5 202.273438 C 165.015625 201.550781 164.570312 200.808594 164.160156 200.042969 C 163.75 199.277344 163.382812 198.492188 163.050781 197.691406 C 162.714844 196.886719 162.425781 196.070312 162.171875 195.242188 C 161.921875 194.410156 161.710938 193.566406 161.539062 192.714844 C 161.371094 191.863281 161.242188 191.007812 161.160156 190.144531 C 161.074219 189.277344 161.03125 188.414062 161.03125 187.542969 C 161.03125 186.675781 161.074219 185.808594 161.160156 184.945312 C 161.242188 184.082031 161.371094 183.222656 161.539062 182.371094 C 161.710938 181.519531 161.921875 180.679688 162.171875 179.847656 C 162.425781 179.015625 162.714844 178.199219 163.050781 177.398438 C 163.382812 176.59375 163.75 175.8125 164.160156 175.046875 C 164.570312 174.28125 165.015625 173.535156 165.5 172.8125 C 165.980469 172.09375 166.496094 171.394531 167.050781 170.722656 C 167.601562 170.054688 168.183594 169.410156 168.796875 168.796875 C 169.410156 168.183594 170.054688 167.601562 170.722656 167.050781 C 171.394531 166.496094 172.09375 165.980469 172.8125 165.5 C 173.535156 165.015625 174.28125 164.570312 175.046875 164.160156 C 175.8125 163.753906 176.59375 163.382812 177.398438 163.050781 C 178.199219 162.714844 179.015625 162.425781 179.847656 162.171875 C 180.679688 161.921875 181.519531 161.710938 182.371094 161.539062 C 183.222656 161.371094 184.082031 161.242188 184.945312 161.160156 C 185.808594 161.074219 186.675781 161.03125 187.542969 161.03125 C 188.414062 161.03125 189.277344 161.074219 190.144531 161.160156 C 191.007812 161.242188 191.863281 161.371094 192.714844 161.539062 C 193.566406 161.710938 194.410156 161.921875 195.242188 162.171875 C 196.070312 162.425781 196.886719 162.714844 197.691406 163.046875 C 198.492188 163.382812 199.277344 163.75 200.042969 164.160156 C 200.808594 164.570312 201.550781 165.015625 202.273438 165.5 C 202.996094 165.980469 203.691406 166.496094 204.363281 167.050781 C 205.035156 167.601562 205.675781 168.183594 206.292969 168.796875 C 206.90625 169.410156 207.488281 170.054688 208.039062 170.722656 C 208.589844 171.394531 209.105469 172.09375 209.589844 172.8125 C 210.070312 173.535156 210.515625 174.28125 210.925781 175.046875 C 211.335938 175.8125 211.707031 176.59375 212.039062 177.398438 C 212.371094 178.199219 212.664062 179.015625 212.914062 179.847656 C 213.167969 180.679688 213.378906 181.519531 213.546875 182.371094 C 213.71875 183.222656 213.84375 184.082031 213.929688 184.945312 C 214.015625 185.808594 214.058594 186.675781 214.058594 187.542969 Z M 214.058594 187.542969 " fill-opacity="1" fill-rule="nonzero"/><path fill="#000000" d="M 123.945312 187.542969 C 123.945312 188.414062 123.902344 189.277344 123.816406 190.144531 C 123.730469 191.007812 123.605469 191.863281 123.433594 192.714844 C 123.265625 193.566406 123.054688 194.410156 122.804688 195.242188 C 122.550781 196.070312 122.257812 196.886719 121.925781 197.691406 C 121.59375 198.492188 121.222656 199.277344 120.8125 200.042969 C 120.40625 200.808594 119.957031 201.550781 119.476562 202.273438 C 118.992188 202.996094 118.476562 203.691406 117.925781 204.363281 C 117.375 205.035156 116.792969 205.675781 116.179688 206.292969 C 115.566406 206.90625 114.921875 207.488281 114.25 208.039062 C 113.578125 208.589844 112.882812 209.105469 112.160156 209.589844 C 111.4375 210.070312 110.695312 210.515625 109.929688 210.925781 C 109.164062 211.335938 108.378906 211.707031 107.578125 212.039062 C 106.773438 212.371094 105.957031 212.664062 105.128906 212.914062 C 104.296875 213.167969 103.457031 213.378906 102.605469 213.546875 C 101.753906 213.71875 100.894531 213.84375 100.03125 213.929688 C 99.164062 214.015625 98.300781 214.058594 97.429688 214.058594 C 96.5625 214.058594 95.695312 214.015625 94.832031 213.929688 C 93.96875 213.84375 93.109375 213.71875 92.257812 213.546875 C 91.40625 213.378906 90.566406 213.167969 89.734375 212.914062 C 88.902344 212.664062 88.085938 212.371094 87.285156 212.039062 C 86.484375 211.707031 85.699219 211.335938 84.933594 210.925781 C 84.167969 210.515625 83.421875 210.070312 82.703125 209.589844 C 81.980469 209.105469 81.28125 208.589844 80.613281 208.039062 C 79.941406 207.488281 79.296875 206.90625 78.683594 206.292969 C 78.070312 205.675781 77.488281 205.035156 76.9375 204.363281 C 76.386719 203.691406 75.867188 202.996094 75.386719 202.273438 C 74.902344 201.550781 74.457031 200.808594 74.046875 200.042969 C 73.640625 199.277344 73.269531 198.492188 72.9375 197.691406 C 72.605469 196.886719 72.3125 196.070312 72.058594 195.242188 C 71.808594 194.410156 71.597656 193.566406 71.425781 192.714844 C 71.257812 191.863281 71.132812 191.007812 71.046875 190.144531 C 70.960938 189.277344 70.917969 188.414062 70.917969 187.542969 C 70.917969 186.675781 70.960938 185.808594 71.046875 184.945312 C 71.132812 184.082031 71.257812 183.222656 71.425781 182.371094 C 71.597656 181.519531 71.808594 180.679688 72.058594 179.847656 C 72.3125 179.015625 72.605469 178.199219 72.9375 177.398438 C 73.269531 176.59375 73.640625 175.8125 74.046875 175.046875 C 74.457031 174.28125 74.902344 173.535156 75.386719 172.8125 C 75.867188 172.09375 76.386719 171.394531 76.9375 170.722656 C 77.488281 170.054688 78.070312 169.410156 78.683594 168.796875 C 79.296875 168.183594 79.941406 167.601562 80.613281 167.050781 C 81.28125 166.496094 81.980469 165.980469 82.703125 165.5 C 83.421875 165.015625 84.167969 164.570312 84.933594 164.160156 C 85.699219 163.753906 86.484375 163.382812 87.285156 163.050781 C 88.085938 162.714844 88.902344 162.425781 89.734375 162.171875 C 90.566406 161.921875 91.40625 161.710938 92.257812 161.539062 C 93.109375 161.371094 93.96875 161.242188 94.832031 161.160156 C 95.695312 161.074219 96.5625 161.03125 97.429688 161.03125 C 98.300781 161.03125 99.164062 161.074219 100.03125 161.160156 C 100.894531 161.242188 101.753906 161.371094 102.605469 161.539062 C 103.457031 161.710938 104.296875 161.921875 105.128906 162.171875 C 105.957031 162.425781 106.773438 162.714844 107.578125 163.046875 C 108.378906 163.382812 109.164062 163.75 109.929688 164.160156 C 110.695312 164.570312 111.4375 165.015625 112.160156 165.5 C 112.882812 165.980469 113.578125 166.496094 114.25 167.050781 C 114.921875 167.601562 115.566406 168.183594 116.179688 168.796875 C 116.792969 169.410156 117.375 170.054688 117.925781 170.722656 C 118.476562 171.394531 118.992188 172.09375 119.476562 172.8125 C 119.957031 173.535156 120.40625 174.28125 120.8125 175.046875 C 121.222656 175.8125 121.59375 176.59375 121.925781 177.398438 C 122.257812 178.199219 122.550781 179.015625 122.804688 179.847656 C 123.054688 180.679688 123.265625 181.519531 123.433594 182.371094 C 123.605469 183.222656 123.730469 184.082031 123.816406 184.945312 C 123.902344 185.808594 123.945312 186.675781 123.945312 187.542969 Z M 123.945312 187.542969 " fill-opacity="1" fill-rule="nonzero"/><path fill="#000000" d="M 304.167969 187.542969 C 304.167969 188.414062 304.128906 189.277344 304.042969 190.144531 C 303.957031 191.007812 303.828125 191.863281 303.660156 192.714844 C 303.492188 193.566406 303.28125 194.410156 303.027344 195.242188 C 302.777344 196.070312 302.484375 196.886719 302.152344 197.691406 C 301.820312 198.492188 301.449219 199.277344 301.039062 200.042969 C 300.628906 200.808594 300.183594 201.550781 299.703125 202.273438 C 299.21875 202.996094 298.703125 203.691406 298.152344 204.363281 C 297.601562 205.035156 297.019531 205.675781 296.402344 206.292969 C 295.789062 206.90625 295.148438 207.488281 294.476562 208.039062 C 293.804688 208.589844 293.109375 209.105469 292.386719 209.589844 C 291.664062 210.070312 290.921875 210.515625 290.15625 210.925781 C 289.390625 211.335938 288.605469 211.707031 287.800781 212.039062 C 287 212.371094 286.183594 212.664062 285.351562 212.914062 C 284.523438 213.167969 283.679688 213.378906 282.828125 213.546875 C 281.976562 213.71875 281.121094 213.84375 280.253906 213.929688 C 279.390625 214.015625 278.523438 214.058594 277.65625 214.058594 C 276.789062 214.058594 275.921875 214.015625 275.058594 213.929688 C 274.195312 213.84375 273.335938 213.71875 272.484375 213.546875 C 271.632812 213.378906 270.789062 213.167969 269.960938 212.914062 C 269.128906 212.664062 268.3125 212.371094 267.511719 212.039062 C 266.707031 211.707031 265.925781 211.335938 265.15625 210.925781 C 264.390625 210.515625 263.648438 210.070312 262.925781 209.589844 C 262.203125 209.105469 261.507812 208.589844 260.835938 208.039062 C 260.164062 207.488281 259.523438 206.90625 258.910156 206.292969 C 258.292969 205.675781 257.710938 205.035156 257.160156 204.363281 C 256.609375 203.691406 256.09375 202.996094 255.613281 202.273438 C 255.128906 201.550781 254.683594 200.808594 254.273438 200.042969 C 253.863281 199.277344 253.492188 198.492188 253.160156 197.691406 C 252.828125 196.886719 252.535156 196.070312 252.285156 195.242188 C 252.03125 194.410156 251.820312 193.566406 251.652344 192.714844 C 251.484375 191.863281 251.355469 191.007812 251.269531 190.144531 C 251.1875 189.277344 251.144531 188.414062 251.144531 187.542969 C 251.144531 186.675781 251.1875 185.808594 251.269531 184.945312 C 251.355469 184.082031 251.484375 183.222656 251.652344 182.371094 C 251.820312 181.519531 252.03125 180.679688 252.285156 179.847656 C 252.535156 179.015625 252.828125 178.199219 253.160156 177.398438 C 253.492188 176.59375 253.863281 175.8125 254.273438 175.046875 C 254.683594 174.28125 255.128906 173.535156 255.613281 172.8125 C 256.09375 172.09375 256.609375 171.394531 257.160156 170.722656 C 257.710938 170.054688 258.292969 169.410156 258.910156 168.796875 C 259.523438 168.183594 260.164062 167.601562 260.835938 167.050781 C 261.507812 166.496094 262.203125 165.980469 262.925781 165.5 C 263.648438 165.015625 264.390625 164.570312 265.15625 164.160156 C 265.925781 163.753906 266.707031 163.382812 267.511719 163.050781 C 268.3125 162.714844 269.128906 162.425781 269.960938 162.171875 C 270.789062 161.921875 271.632812 161.710938 272.484375 161.539062 C 273.335938 161.371094 274.195312 161.242188 275.058594 161.160156 C 275.921875 161.074219 276.789062 161.03125 277.65625 161.03125 C 278.523438 161.03125 279.390625 161.074219 280.253906 161.160156 C 281.121094 161.242188 281.976562 161.371094 282.828125 161.539062 C 283.679688 161.710938 284.523438 161.921875 285.351562 162.171875 C 286.183594 162.425781 287 162.714844 287.800781 163.046875 C 288.605469 163.382812 289.390625 163.75 290.15625 164.160156 C 290.921875 164.570312 291.664062 165.015625 292.386719 165.5 C 293.109375 165.980469 293.804688 166.496094 294.476562 167.050781 C 295.148438 167.601562 295.789062 168.183594 296.402344 168.796875 C 297.019531 169.410156 297.601562 170.054688 298.152344 170.722656 C 298.703125 171.394531 299.21875 172.09375 299.703125 172.8125 C 300.183594 173.535156 300.628906 174.28125 301.039062 175.046875 C 301.449219 175.8125 301.820312 176.59375 302.152344 177.398438 C 302.484375 178.199219 302.777344 179.015625 303.027344 179.847656 C 303.28125 180.679688 303.492188 181.519531 303.660156 182.371094 C 303.828125 183.222656 303.957031 184.082031 304.042969 184.945312 C 304.128906 185.808594 304.167969 186.675781 304.167969 187.542969 Z M 304.167969 187.542969 " fill-opacity="1" fill-rule="nonzero"/></svg>