<svg xmlns="http://www.w3.org/2000/svg" xmlns:xlink="http://www.w3.org/1999/xlink" width="500" zoomAndPan="magnify" viewBox="0 0 375 374.999991" height="500" preserveAspectRatio="xMidYMid meet" version="1.0"><defs><clipPath id="id1"><path d="M 11 168 L 361.84375 168 L 361.84375 295 L 11 295 Z M 11 168 " clip-rule="nonzero"/></clipPath><clipPath id="id2"><path d="M 10 168 L 361.84375 168 L 361.84375 295 L 10 295 Z M 10 168 " clip-rule="nonzero"/></clipPath></defs><path fill="#f4e6d8" d="M 357.175781 168.410156 L 357.207031 215.84375 L 248.011719 281.46875 L 13.617188 222.628906 L 10.523438 183.238281 L 247.550781 231.152344 Z M 357.175781 168.410156 " fill-opacity="1" fill-rule="evenodd"/><path fill="#f4e6d8" d="M 357.550781 168.410156 C 357.550781 168.273438 357.480469 168.148438 357.367188 168.082031 C 357.253906 168.011719 357.109375 168.011719 356.996094 168.074219 C 356.996094 168.074219 251.535156 228.433594 247.488281 230.75 C 241.121094 229.464844 10.597656 182.863281 10.597656 182.863281 C 10.480469 182.839844 10.363281 182.871094 10.277344 182.953125 C 10.191406 183.03125 10.144531 183.148438 10.152344 183.269531 L 13.246094 222.660156 C 13.261719 222.824219 13.375 222.960938 13.53125 223 L 247.921875 281.839844 C 248.019531 281.863281 248.117188 281.851562 248.199219 281.800781 L 357.394531 216.175781 C 357.507812 216.105469 357.578125 215.980469 357.578125 215.84375 Z M 356.804688 169.058594 L 356.832031 215.628906 C 356.832031 215.628906 252.160156 278.535156 247.953125 281.0625 C 247.953125 281.0625 13.96875 222.324219 13.96875 222.324219 C 13.96875 222.324219 10.933594 183.707031 10.933594 183.707031 C 10.933594 183.707031 247.476562 231.527344 247.476562 231.527344 C 247.5625 231.542969 247.652344 231.53125 247.730469 231.484375 Z M 356.804688 169.058594 " fill-opacity="1" fill-rule="evenodd"/><path fill="#daccbc" d="M 350.46875 180.933594 C 350.34375 181.039062 349.136719 182.042969 347.519531 183.132812 C 330.105469 194.875 245.65625 244.382812 241.511719 246.8125 C 234.339844 244.992188 11.132812 188.351562 11.132812 188.351562 C 10.882812 188.289062 10.636719 188.441406 10.578125 188.691406 C 10.519531 188.941406 10.664062 189.195312 10.910156 189.253906 L 241.46875 247.761719 C 241.582031 247.789062 241.703125 247.773438 241.804688 247.714844 C 241.804688 247.714844 330.160156 195.953125 348.019531 183.910156 C 349.648438 182.8125 350.699219 182.03125 351.070312 181.644531 C 351.265625 181.4375 351.332031 181.257812 351.34375 181.15625 C 351.371094 180.902344 351.191406 180.671875 350.941406 180.640625 C 350.734375 180.617188 350.542969 180.742188 350.46875 180.933594 Z M 350.46875 180.933594 " fill-opacity="1" fill-rule="evenodd"/><path fill="#daccbc" d="M 351.566406 186.335938 C 351.441406 186.441406 350.226562 187.453125 348.597656 188.550781 C 331.089844 200.382812 246.15625 250.332031 242 252.777344 C 242 252.777344 11.597656 194.527344 11.597656 194.527344 C 11.351562 194.464844 11.101562 194.617188 11.042969 194.867188 C 10.984375 195.117188 11.128906 195.371094 11.378906 195.429688 L 241.957031 253.726562 C 242.070312 253.753906 242.191406 253.738281 242.292969 253.675781 C 242.292969 253.675781 331.140625 201.460938 349.097656 189.328125 C 350.734375 188.222656 351.796875 187.433594 352.167969 187.042969 C 352.363281 186.839844 352.429688 186.660156 352.441406 186.558594 C 352.46875 186.304688 352.289062 186.074219 352.039062 186.042969 C 351.832031 186.019531 351.640625 186.144531 351.566406 186.335938 Z M 351.566406 186.335938 " fill-opacity="1" fill-rule="evenodd"/><path fill="#daccbc" d="M 354.695312 189.375 C 354.574219 189.480469 353.324219 190.527344 351.652344 191.671875 C 333.726562 203.945312 246.742188 256.085938 242.511719 258.617188 C 235.277344 256.765625 11.859375 199.570312 11.859375 199.570312 C 11.621094 199.507812 11.375 199.660156 11.316406 199.90625 C 11.25 200.15625 11.402344 200.410156 11.640625 200.472656 L 242.472656 259.566406 C 242.585938 259.597656 242.710938 259.578125 242.8125 259.515625 C 242.8125 259.515625 333.777344 205.03125 352.15625 192.445312 C 353.832031 191.296875 354.914062 190.484375 355.292969 190.085938 C 355.492188 189.878906 355.558594 189.699219 355.570312 189.597656 C 355.597656 189.34375 355.417969 189.113281 355.167969 189.082031 C 354.960938 189.058594 354.769531 189.183594 354.695312 189.375 Z M 354.695312 189.375 " fill-opacity="1" fill-rule="evenodd"/><path fill="#daccbc" d="M 354.707031 195.453125 C 354.585938 195.558594 353.339844 196.609375 351.667969 197.761719 C 333.769531 210.109375 246.910156 262.601562 242.671875 265.160156 C 242.671875 265.160156 12.5625 205.816406 12.5625 205.816406 C 12.324219 205.757812 12.074219 205.90625 12.007812 206.15625 C 11.949219 206.40625 12.101562 206.660156 12.339844 206.722656 L 242.632812 266.109375 C 242.746094 266.140625 242.871094 266.121094 242.972656 266.058594 C 242.972656 266.058594 333.820312 211.195312 352.175781 198.535156 C 353.847656 197.378906 354.929688 196.566406 355.308594 196.164062 C 355.507812 195.957031 355.570312 195.773438 355.582031 195.675781 C 355.609375 195.421875 355.429688 195.191406 355.183594 195.160156 C 354.972656 195.136719 354.78125 195.261719 354.707031 195.453125 Z M 354.707031 195.453125 " fill-opacity="1" fill-rule="evenodd"/><path fill="#daccbc" d="M 354.714844 201.578125 C 354.59375 201.679688 353.351562 202.734375 351.6875 203.890625 C 333.847656 216.269531 247.296875 268.914062 243.050781 271.496094 C 235.773438 269.59375 12.964844 211.386719 12.964844 211.386719 C 12.726562 211.324219 12.46875 211.476562 12.410156 211.726562 C 12.351562 211.972656 12.496094 212.226562 12.746094 212.289062 L 243.007812 272.445312 C 243.125 272.476562 243.25 272.457031 243.351562 272.394531 C 243.351562 272.394531 333.898438 217.359375 352.195312 204.660156 C 353.859375 203.503906 354.9375 202.6875 355.316406 202.285156 C 355.515625 202.078125 355.578125 201.894531 355.589844 201.796875 C 355.617188 201.542969 355.441406 201.3125 355.191406 201.28125 C 354.980469 201.257812 354.789062 201.382812 354.714844 201.578125 Z M 354.714844 201.578125 " fill-opacity="1" fill-rule="evenodd"/><g clip-path="url(#id1)"><path fill="#f8a7bb" d="M 352.195312 171.230469 C 347.222656 178.785156 360.761719 209.710938 354.21875 216.277344 C 342.445312 228.101562 252.953125 271.4375 246.238281 280.101562 C 246.238281 280.101562 52.550781 229.628906 13.722656 221.78125 C 10.335938 221.097656 10 231.96875 13.320312 233.007812 C 52.035156 245.144531 246.058594 294.597656 246.058594 294.597656 L 361.285156 223.964844 L 357.253906 168.414062 C 357.253906 168.414062 353.613281 169.070312 352.195312 171.230469 Z M 352.195312 171.230469 " fill-opacity="1" fill-rule="evenodd"/></g><g clip-path="url(#id2)"><path fill="#f8a7bb" d="M 351.886719 171.015625 C 350.65625 172.882812 350.492188 176.128906 350.910156 180.089844 C 351.519531 185.863281 353.328125 193.1875 354.535156 199.828125 C 355.332031 204.210938 355.867188 208.292969 355.605469 211.417969 C 355.4375 213.414062 354.953125 215.007812 353.960938 216.007812 C 345.726562 224.273438 299.445312 247.953125 270.121094 264.394531 C 261.300781 269.339844 254.007812 273.632812 249.734375 276.652344 C 248.011719 277.875 246.769531 278.894531 246.105469 279.671875 C 238.691406 277.742188 51.851562 229.101562 13.800781 221.40625 C 13.128906 221.269531 12.550781 221.496094 12.074219 221.984375 C 11.453125 222.617188 11.011719 223.75 10.792969 225.074219 C 10.484375 226.988281 10.605469 229.300781 11.207031 230.984375 C 11.632812 232.203125 12.316406 233.09375 13.210938 233.371094 C 51.933594 245.507812 245.96875 294.96875 245.96875 294.96875 C 246.0625 294.992188 246.164062 294.976562 246.25 294.925781 L 361.476562 224.292969 C 361.597656 224.21875 361.667969 224.082031 361.65625 223.9375 L 357.625 168.386719 C 357.617188 168.277344 357.566406 168.179688 357.484375 168.113281 C 357.398438 168.046875 357.292969 168.019531 357.191406 168.039062 C 357.191406 168.039062 355.832031 168.28125 354.429688 168.960938 C 353.46875 169.425781 352.492188 170.097656 351.886719 171.015625 Z M 352.503906 171.441406 C 353.035156 170.636719 353.902344 170.058594 354.75 169.652344 C 355.601562 169.238281 356.4375 168.996094 356.914062 168.878906 C 356.914062 168.878906 360.898438 223.761719 360.898438 223.761719 C 360.898438 223.761719 245.996094 294.1875 245.996094 294.1875 C 239.945312 292.644531 51.523438 244.582031 13.429688 232.644531 C 12.722656 232.421875 12.238281 231.679688 11.902344 230.726562 C 11.347656 229.152344 11.230469 226.988281 11.527344 225.199219 C 11.6875 224.238281 11.964844 223.386719 12.363281 222.808594 C 12.703125 222.324219 13.121094 222.046875 13.65625 222.15625 C 52.472656 230.003906 246.148438 280.472656 246.148438 280.472656 C 246.289062 280.507812 246.441406 280.457031 246.53125 280.339844 C 247.121094 279.578125 248.371094 278.546875 250.160156 277.28125 C 254.417969 274.269531 261.683594 269.992188 270.476562 265.0625 C 299.863281 248.589844 346.230469 224.835938 354.480469 216.550781 C 355.582031 215.445312 356.160156 213.695312 356.347656 211.484375 C 356.613281 208.300781 356.078125 204.148438 355.265625 199.6875 C 354.0625 193.070312 352.257812 185.765625 351.648438 180.007812 C 351.257812 176.273438 351.34375 173.203125 352.503906 171.441406 Z M 352.503906 171.441406 " fill-opacity="1" fill-rule="evenodd"/></g><path fill="#f8a7bb" d="M 356.992188 168.238281 L 109.878906 125.429688 C 109.878906 125.429688 -13.039062 179.933594 10.488281 185.109375 C 62.386719 196.527344 223.035156 249.132812 244.8125 235.847656 C 275.070312 217.386719 356.992188 168.238281 356.992188 168.238281 Z M 356.992188 168.238281 " fill-opacity="1" fill-rule="evenodd"/><path fill="#f8a7bb" d="M 357.179688 168.566406 C 357.316406 168.484375 357.386719 168.324219 357.359375 168.167969 C 357.332031 168.007812 357.210938 167.886719 357.054688 167.859375 L 109.941406 125.054688 C 109.871094 125.042969 109.796875 125.050781 109.730469 125.078125 C 109.730469 125.078125 30.992188 160.003906 11.554688 176.625 C 9.765625 178.152344 8.472656 179.53125 7.769531 180.71875 C 7.257812 181.585938 7.050781 182.363281 7.148438 183.03125 C 7.308594 184.136719 8.3125 185.023438 10.410156 185.484375 C 46.742188 193.476562 136.359375 221.652344 194.332031 233.28125 C 209.265625 236.273438 222.101562 238.171875 231.394531 238.351562 C 237.671875 238.46875 242.351562 237.792969 245.003906 236.175781 C 275.257812 217.714844 357.179688 168.566406 357.179688 168.566406 Z M 355.921875 168.4375 C 347.003906 173.789062 273.035156 218.1875 244.625 235.519531 C 242.050781 237.089844 237.5 237.703125 231.410156 237.585938 C 222.148438 237.410156 209.355469 235.515625 194.476562 232.53125 C 136.507812 220.902344 46.894531 192.730469 10.566406 184.738281 C 9.285156 184.457031 8.464844 184.042969 8.089844 183.457031 C 7.765625 182.960938 7.8125 182.347656 8.132812 181.640625 C 8.6875 180.394531 10.046875 178.90625 12.03125 177.210938 C 31.027344 160.96875 106.773438 127.226562 109.925781 125.824219 Z M 355.921875 168.4375 " fill-opacity="1" fill-rule="evenodd"/><path fill="#f4e6d8" d="M 335.546875 115.722656 L 335.636719 154.894531 L 240.175781 209.273438 L 34.976562 161.09375 L 32.214844 128.574219 L 239.699219 167.726562 Z M 335.546875 115.722656 " fill-opacity="1" fill-rule="evenodd"/><path fill="#f4e6d8" d="M 335.917969 115.722656 C 335.921875 115.589844 335.851562 115.464844 335.738281 115.398438 C 335.628906 115.328125 335.488281 115.324219 335.375 115.386719 L 239.640625 167.324219 C 239.640625 167.324219 32.28125 128.195312 32.28125 128.195312 C 32.167969 128.175781 32.050781 128.210938 31.964844 128.289062 C 31.878906 128.371094 31.835938 128.488281 31.84375 128.605469 L 34.605469 161.128906 C 34.621094 161.292969 34.734375 161.429688 34.894531 161.46875 L 240.089844 209.644531 C 240.179688 209.667969 240.273438 209.652344 240.355469 209.609375 L 335.820312 155.226562 C 335.9375 155.160156 336.011719 155.03125 336.011719 154.894531 Z M 335.175781 116.355469 L 335.265625 154.671875 C 335.265625 154.671875 240.117188 208.871094 240.117188 208.871094 C 240.117188 208.871094 43.53125 162.714844 35.324219 160.785156 C 35.324219 160.785156 32.628906 129.039062 32.628906 129.039062 C 32.628906 129.039062 239.632812 168.101562 239.632812 168.101562 C 239.714844 168.117188 239.800781 168.101562 239.875 168.0625 Z M 335.175781 116.355469 " fill-opacity="1" fill-rule="evenodd"/><path fill="#daccbc" d="M 329.652344 126.023438 C 329.527344 126.121094 328.484375 126.9375 327.09375 127.824219 C 311.894531 137.539062 238.21875 178.480469 234.433594 180.582031 C 234.433594 180.582031 32.761719 132.714844 32.761719 132.714844 C 32.515625 132.65625 32.269531 132.8125 32.210938 133.0625 C 32.160156 133.3125 32.3125 133.5625 32.558594 133.621094 L 234.394531 181.53125 C 234.503906 181.554688 234.617188 181.539062 234.714844 181.484375 C 234.714844 181.484375 311.964844 138.589844 327.578125 128.613281 C 329.003906 127.703125 329.929688 127.050781 330.253906 126.726562 C 330.449219 126.539062 330.503906 126.367188 330.515625 126.273438 C 330.546875 126.019531 330.367188 125.785156 330.117188 125.753906 C 329.917969 125.730469 329.734375 125.84375 329.652344 126.023438 Z M 329.652344 126.023438 " fill-opacity="1" fill-rule="evenodd"/><path fill="#daccbc" d="M 330.621094 130.484375 C 330.496094 130.582031 329.445312 131.402344 328.050781 132.296875 C 312.761719 142.085938 238.664062 183.394531 234.871094 185.507812 C 234.871094 185.507812 33.179688 137.8125 33.179688 137.8125 C 32.933594 137.753906 32.6875 137.910156 32.628906 138.160156 C 32.578125 138.414062 32.726562 138.660156 32.972656 138.71875 L 234.832031 186.457031 C 234.941406 186.480469 235.054688 186.464844 235.152344 186.410156 C 235.152344 186.410156 312.832031 143.136719 328.53125 133.085938 C 329.96875 132.167969 330.898438 131.511719 331.222656 131.1875 C 331.417969 130.996094 331.476562 130.824219 331.484375 130.730469 C 331.515625 130.476562 331.335938 130.246094 331.089844 130.214844 C 330.886719 130.191406 330.703125 130.304688 330.621094 130.484375 Z M 330.621094 130.484375 " fill-opacity="1" fill-rule="evenodd"/><path fill="#daccbc" d="M 333.367188 132.988281 C 333.238281 133.085938 332.164062 133.933594 330.726562 134.867188 C 315.078125 145.023438 239.191406 188.136719 235.328125 190.332031 C 235.328125 190.332031 33.417969 141.976562 33.417969 141.976562 C 33.179688 141.917969 32.933594 142.074219 32.875 142.324219 C 32.816406 142.574219 32.972656 142.824219 33.210938 142.882812 L 235.292969 191.277344 C 235.402344 191.304688 235.515625 191.285156 235.613281 191.230469 C 235.613281 191.230469 315.144531 146.078125 331.210938 135.652344 C 332.679688 134.699219 333.628906 134.023438 333.964844 133.695312 C 334.160156 133.5 334.21875 133.328125 334.230469 133.234375 C 334.257812 132.980469 334.082031 132.75 333.832031 132.71875 C 333.632812 132.695312 333.445312 132.808594 333.367188 132.988281 Z M 333.367188 132.988281 " fill-opacity="1" fill-rule="evenodd"/><path fill="#daccbc" d="M 333.382812 138.003906 C 333.257812 138.105469 332.179688 138.957031 330.746094 139.894531 C 315.117188 150.113281 239.34375 193.515625 235.472656 195.730469 C 235.472656 195.730469 34.035156 147.132812 34.035156 147.132812 C 33.796875 147.074219 33.550781 147.230469 33.492188 147.480469 C 33.433594 147.730469 33.585938 147.980469 33.832031 148.039062 L 235.4375 196.679688 C 235.546875 196.703125 235.664062 196.6875 235.761719 196.632812 C 235.761719 196.632812 315.1875 151.167969 331.234375 140.679688 C 332.699219 139.722656 333.648438 139.042969 333.980469 138.710938 C 334.175781 138.519531 334.234375 138.34375 334.246094 138.253906 C 334.273438 138 334.097656 137.765625 333.847656 137.734375 C 333.648438 137.710938 333.460938 137.828125 333.382812 138.003906 Z M 333.382812 138.003906 " fill-opacity="1" fill-rule="evenodd"/><path fill="#daccbc" d="M 333.402344 143.0625 C 333.277344 143.160156 332.203125 144.015625 330.773438 144.957031 C 315.199219 155.199219 239.695312 198.726562 235.816406 200.964844 C 229.191406 199.34375 34.402344 151.734375 34.402344 151.734375 C 34.15625 151.675781 33.910156 151.828125 33.859375 152.078125 C 33.800781 152.328125 33.949219 152.578125 34.195312 152.640625 L 235.78125 201.910156 C 235.890625 201.9375 236.007812 201.921875 236.109375 201.863281 C 236.109375 201.863281 315.269531 156.257812 331.265625 145.742188 C 332.726562 144.78125 333.671875 144.097656 334.003906 143.765625 C 334.195312 143.574219 334.253906 143.398438 334.265625 143.308594 C 334.296875 143.054688 334.117188 142.824219 333.867188 142.792969 C 333.667969 142.769531 333.480469 142.882812 333.402344 143.0625 Z M 333.402344 143.0625 " fill-opacity="1" fill-rule="evenodd"/><path fill="#fccbd7" d="M 331.191406 118.0625 C 326.851562 124.308594 338.742188 149.820312 333.027344 155.257812 C 322.738281 165.042969 244.484375 200.980469 238.621094 208.148438 C 238.621094 208.148438 69.054688 166.808594 35.070312 160.394531 C 32.101562 159.832031 31.824219 168.8125 34.730469 169.664062 C 68.625 179.617188 238.480469 220.117188 238.480469 220.117188 L 339.21875 161.59375 L 335.617188 115.726562 C 335.617188 115.726562 332.433594 116.277344 331.191406 118.0625 Z M 331.191406 118.0625 " fill-opacity="1" fill-rule="evenodd"/><path fill="#fccbd7" d="M 330.886719 117.839844 C 329.808594 119.394531 329.660156 122.097656 330.035156 125.386719 C 330.574219 130.160156 332.167969 136.207031 333.234375 141.691406 C 333.9375 145.296875 334.410156 148.65625 334.1875 151.234375 C 334.042969 152.859375 333.628906 154.164062 332.773438 154.976562 C 325.582031 161.820312 285.117188 181.449219 259.484375 195.074219 C 251.769531 199.171875 245.394531 202.730469 241.65625 205.234375 C 240.160156 206.238281 239.078125 207.082031 238.492188 207.722656 C 231.730469 206.074219 68.421875 166.300781 35.136719 160.019531 C 34.398438 159.878906 33.789062 160.195312 33.320312 160.832031 C 32.914062 161.382812 32.625 162.1875 32.464844 163.101562 C 32.1875 164.699219 32.308594 166.625 32.832031 168.027344 C 33.21875 169.050781 33.832031 169.796875 34.628906 170.03125 C 68.53125 179.988281 238.398438 220.488281 238.398438 220.488281 C 238.488281 220.511719 238.585938 220.496094 238.664062 220.449219 L 339.402344 161.925781 C 339.53125 161.851562 339.601562 161.710938 339.589844 161.5625 L 335.988281 115.699219 C 335.980469 115.589844 335.929688 115.492188 335.84375 115.425781 C 335.761719 115.359375 335.65625 115.332031 335.554688 115.351562 C 335.554688 115.351562 334.363281 115.554688 333.132812 116.121094 C 332.285156 116.511719 331.421875 117.074219 330.886719 117.839844 Z M 331.496094 118.28125 C 331.953125 117.621094 332.707031 117.152344 333.4375 116.816406 C 334.15625 116.488281 334.855469 116.289062 335.277344 116.1875 C 335.277344 116.1875 338.828125 161.382812 338.828125 161.382812 C 338.828125 161.382812 242.402344 217.402344 238.425781 219.710938 C 232.914062 218.394531 68.164062 179.085938 34.835938 169.296875 C 34.230469 169.121094 33.816406 168.523438 33.53125 167.753906 C 33.042969 166.46875 32.949219 164.699219 33.195312 163.238281 C 33.335938 162.453125 33.570312 161.761719 33.917969 161.289062 C 34.199219 160.90625 34.558594 160.683594 35.003906 160.769531 C 68.984375 167.183594 238.535156 208.519531 238.535156 208.519531 C 238.671875 208.550781 238.816406 208.503906 238.90625 208.390625 C 239.421875 207.761719 240.507812 206.914062 242.066406 205.871094 C 245.789062 203.378906 252.140625 199.835938 259.828125 195.75 C 285.523438 182.09375 326.070312 162.394531 333.28125 155.539062 C 334.253906 154.613281 334.765625 153.148438 334.925781 151.300781 C 335.15625 148.667969 334.683594 145.230469 333.964844 141.539062 C 332.902344 136.078125 331.3125 130.054688 330.773438 125.300781 C 330.425781 122.242188 330.492188 119.726562 331.496094 118.28125 Z M 331.496094 118.28125 " fill-opacity="1" fill-rule="evenodd"/><path fill="#fccbd7" d="M 335.386719 115.582031 L 119.082031 80.664062 C 119.082031 80.664062 11.59375 125.886719 32.1875 130.121094 C 77.617188 139.457031 218.273438 182.617188 237.3125 171.605469 C 263.765625 156.3125 335.386719 115.582031 335.386719 115.582031 Z M 335.386719 115.582031 " fill-opacity="1" fill-rule="evenodd"/><path fill="#fccbd7" d="M 335.566406 115.914062 C 335.707031 115.835938 335.78125 115.675781 335.753906 115.515625 C 335.726562 115.355469 335.601562 115.230469 335.445312 115.207031 L 119.140625 80.289062 C 119.070312 80.277344 119.003906 80.285156 118.9375 80.3125 C 118.9375 80.3125 50.078125 109.292969 33.085938 123.050781 C 31.515625 124.324219 30.382812 125.46875 29.765625 126.453125 C 29.304688 127.191406 29.125 127.855469 29.214844 128.421875 C 29.296875 128.925781 29.578125 129.375 30.109375 129.738281 C 30.570312 130.054688 31.230469 130.3125 32.113281 130.492188 C 63.917969 137.03125 142.382812 160.140625 193.128906 169.640625 C 206.203125 172.089844 217.4375 173.632812 225.574219 173.765625 C 231.074219 173.851562 235.175781 173.28125 237.496094 171.9375 C 263.945312 156.644531 335.566406 115.914062 335.566406 115.914062 Z M 334.261719 115.785156 C 325.726562 120.640625 261.792969 157.011719 237.128906 171.273438 C 234.882812 172.574219 230.910156 173.085938 225.585938 173 C 217.480469 172.871094 206.285156 171.328125 193.261719 168.890625 C 142.519531 159.390625 64.0625 136.28125 32.261719 129.746094 C 31.496094 129.589844 30.921875 129.378906 30.523438 129.105469 C 30.195312 128.878906 30 128.613281 29.953125 128.300781 C 29.886719 127.882812 30.054688 127.40625 30.394531 126.867188 C 30.976562 125.933594 32.058594 124.855469 33.546875 123.652344 C 50.132812 110.21875 116.253906 82.269531 119.125 81.058594 Z M 334.261719 115.785156 " fill-opacity="1" fill-rule="evenodd"/></svg>